{"title":"BBC Proms 2012 - 13. Beethoven Symphonies 7 and 8","uid":7534570,"size":1202082164,"categoryP":"video","categoryS":"music_videos","magnet":"?xt=urn:btih:b1be5f5ee75410e3879a413138c9b2edac7b0840&amp;dn=BBC+Proms+2012+-+13.+Beethoven+Symphonies+7+and+8&amp;tr=udp%3A%2F%2Ftracker.openbittorrent.com%3A80&amp;tr=udp%3A%2F%2Fopen.demonii.com%3A1337&amp;tr=udp%3A%2F%2Ftracker.coppersurfer.tk%3A6969&amp;tr=udp%3A%2F%2Fexodus.desync.com%3A6969","seeders":0,"leechers":0,"uploader":"deandominic","files":2,"time":1345054165,"description":"BBC Proms 2012 - 13. Beethoven Symphonies 7 and 8\n\nBeethoven - Symphony No. 8 in F major (25 mins)\nPierre Boulez - AnthÅ mes 2 (25 mins)\nBeethoven - Symphony No. 7 in A major (35 min)\n\nMichael Barenboim violin\nIRCAM live electronics\nWest-Eastern Divan Orchestra\nDaniel Barenboim conductor\n\nDaniel Barenboim continues his survey of Beethoven - whose music, he believes, 'speaks to all people'. Tonight, two Beethoven symphonies of dancing athleticism and universal appeal frame one of Pierre Boulez's mesmerising extensions of earlier works: AnthÅ mes 2 is scored for violin and live electronics and its serenely beautiful expressivity may come as a surprise. Beethoven's ebullient Seventh, famously dubbed 'the apotheosis of dance', was the last piece conducted by Proms founder-conductor Henry Wood.\n\n\nBeethoven - Symphony No. 8 in F major (25 mins)\nPierre Boulez - AnthÅ mes 2 (25 mins)\nBeethoven - Symphony No. 7 in A major (35 min)\n\nVideo\nID                                       : 1\nFormat                                   : AVC\nFormat/Info                              : Advanced Video Codec\nFormat profile                           : &lt;a class=&quot;__cf_email__&quot; href=&quot;/cdn-cgi/l/email-protection&quot; data-cfemail=&quot;084569616648443b2638&quot;&gt;[email&amp;#160;protected]&lt;/a&gt;&lt;script data-cfhash='f9e31' type=&quot;text/javascript&quot;&gt;\n/* &lt;![CDATA[ */!function(){try{var t=&quot;currentScript&quot;in document?document.currentScript:function(){for(var t=document.getElementsByTagName(&quot;script&quot;),e=t.length;e--;)if(t[e].getAttribute(&quot;data-cfhash&quot;))return t[e]}();if(t&amp;&amp;t.previousSibling){var e,r,n,i,c=t.previousSibling,a=c.getAttribute(&quot;data-cfemail&quot;);if(a){for(e=&quot;&quot;,r=parseInt(a.substr(0,2),16),n=2;a.length-n;n+=2)i=parseInt(a.substr(n,2),16)^r,e+=String.fromCharCode(i);e=document.createTextNode(e),c.parentNode.replaceChild(e,c)}t.parentNode.removeChild(t);}}catch(u){}}()/* ]]&gt; */&lt;/script&gt;\nFormat settings, CABAC                   : Yes\nFormat settings, ReFrames                : 4 frames\nCodec ID                                 : avc1\nCodec ID/Info                            : Advanced Video Coding\nDuration                                 : 1h 46mn\nBit rate mode                            : Constant\nBit rate                                 : 1 404 Kbps\nWidth                                    : 832 pixels\nHeight                                   : 468 pixels\nDisplay aspect ratio                     : 16:9\nFrame rate mode                          : Constant\nFrame rate                               : 25.000 fps\nStandard                                 : PAL\nColor space                              : YUV\nChroma subsampling                       : 4:2:0\nBit depth                                : 8 bits\nScan type                                : Progressive\nBits/(Pixel*Frame)                       : 0.144\nStream size                              : 1.04 GiB (93%)\n\nAudio\nID                                       : 2\nFormat                                   : AAC\nFormat/Info                              : Advanced Audio Codec\nFormat profile                           : HE-AAC / LC\nCodec ID                                 : 40\nDuration                                 : 1h 46mn\nBit rate mode                            : Constant\nBit rate                                 : 96.0 Kbps\nChannel(s)                               : 2 channels\nChannel positions                        : Front: L R\nSampling rate                            : 48.0 KHz / 24.0 KHz\nCompression mode                         : Lossy\nStream size                              : 72.3 MiB (6%)\n","torrent":{"xt":"urn:btih:b1be5f5ee75410e3879a413138c9b2edac7b0840","amp;dn":"BBC+Proms+2012+-+13.+Beethoven+Symphonies+7+and+8","amp;tr":["udp%3A%2F%2Ftracker.openbittorrent.com%3A80","udp%3A%2F%2Fopen.demonii.com%3A1337","udp%3A%2F%2Ftracker.coppersurfer.tk%3A6969","udp%3A%2F%2Fexodus.desync.com%3A6969"],"infoHash":"b1be5f5ee75410e3879a413138c9b2edac7b0840","infoHashBuffer":{"type":"Buffer","data":[177,190,95,94,231,84,16,227,135,154,65,49,56,201,178,237,172,123,8,64]},"announce":[],"urlList":[]}}